<svg xmlns="http://www.w3.org/2000/svg" xmlns:xlink="http://www.w3.org/1999/xlink" viewBox="0 0 154.5 154.5" height="154.5" width="154.5" data-background-color="#ffffff" preserveAspectRatio="xMidYMid meet" id="tight-bounds"><g><svg/></g><g><svg viewBox="0 0 154.5 154.5" height="154.5" width="154.5"><g transform="matrix(1,0,0,1,56.627293482455705,56.5974597)"><svg viewBox="0 0 41.24541303508859 41.3050806" height="41.3050806" width="41.24541303508859"><g><svg viewBox="0 0 41.24541303508859 41.3050806" height="41.3050806" width="41.24541303508859"><g><svg viewBox="0 0 41.24541303508859 41.3050806" height="41.3050806" width="41.24541303508859"><g id="textblocktransform"><svg viewBox="0 0 41.24541303508859 41.3050806" height="41.3050806" width="41.24541303508859" id="textblock"><g><svg viewBox="0 0 41.24541303508859 41.3050806" height="41.3050806" width="41.24541303508859"><g><svg viewBox="0 0 41.24541303508859 41.3050806" height="41.3050806" width="41.24541303508859"><g><svg xmlns="http://www.w3.org/2000/svg" xmlns:xlink="http://www.w3.org/1999/xlink" xml:space="preserve" version="1.1" shape-rendering="geometricPrecision" text-rendering="geometricPrecision" image-rendering="optimizeQuality" fill-rule="evenodd" clip-rule="evenodd" viewBox="499858 497024 4000284 4006071" x="0" y="0" height="41.3050806" width="41.24541303508859" class="icon-icon-0" data-fill-palette-color="accent" id="icon-0"><g fill="#4f46e5" data-fill-palette-color="accent"><path fill="#4f46e5" d="M2838987 2928754c33190-12284 73585-30828 117878-58231-18308-18189-37679-34489-56222-43702-42994-21733-62010-18898-89295-8268-11220 4252-24804 18072-31064 30001-1181 2126-1889 4725-2480 7323 18662 19371 34844 38978 47836 55396 5079 6496 9449 12402 13347 17481z m-587381-1767103c-288670-12048-577459-5552-866247 64844-55514 184494-111146 368988-166777 553482 0 0 283709 174337 353042 216976 69333 42521 268237 64136 465487 45828 197251-18308 317845 40395 317845 40395l229023 82562c0 0 148705 49135 193471-47955 44883-97208-40159-171147-100161-191462-60120-20198-223117-80436-223117-80436-164887-75711-502575-46773-215086-310640 167958-42285 345129-40277 528678-8032 76893 93429 162053 189928 257253 290325 0 0 95081 85514 161343 100751 47010 10748 64727 3543 88822-13229 9803-6851 19607-23623 22914-36615 3307-12993-4725-31301-4725-31301l-347255-448124c-13819-17717-31772-30001-51497-36970l118-118-1536-472-1653-591c-131934-53623-494189-203746-639942-189218z m442219 1106019l2008 4488c57285 133823 213668 196306 347491 138902l0 0c133823-57285 196424-213668 139020-347491l-1889-4488c-57286-133824-213787-196424-347610-139021l0 0c-12992 5670-25394 12166-37088 19607 7323 8032 14174 16773 20316 25985 27875 42521 40867 95437 20788 155202-2480 7087-5197 13938-8150 20552-31418 68034-91774 89058-146697 92483 3189 11339 7086 22678 11811 33781z m-190872-1770646c1054167 0 1918170 814277 1997189 1848247l-547458 157682c-30592 8740-48427 41104-39569 71695l180360 626240c8859 30592 41104 48545 71696 39687l223707-64491c-277331 773529-1016961 1327011-1885925 1327011-1106255 0-2003095-896840-2003095-2003095 0-281229 58112-548757 162643-791600l416116 131697c30355 9568 63191-7441 72758-37796l196660-621280c9567-30473-7442-63191-37797-72758l-187919-59529c359302-341822 845460-551710 1380634-551710z m250756 2455471c3779-591 9685-1654 17126-3308-26457-33544-67325-79608-104176-98152-42994-21733-62010-18899-89412-8386-11103 4370-24686 18189-30946 30001-6378 11811-2835 31536-2835 31536l5551 12402c14528 15827 27639 31536 38151 44883 6142 7796 11339 14764 15709 20670l142446-28702 3189-236c118-118 1771-236 5197-708z m-217920 519819c12874 19135 31418 34607 54568 43466l174927 67207 247331-154966-252764-80199c-24096 4725-54923 10748-85515 16890-38859 7796-77246 15591-99334 20552-21260 4725-44056 6378-68033 5079-2835-236-5670-591-8504-827l21851 49254c3071 10394 7441 20433 13228 29646l1772 4134 473-236z m-5552-475527c-26575-33190-66262-77364-102050-95436-42994-21733-62010-18780-89413-8386-11102 4370-24685 18190-30945 30119-6379 11693-2835 31419-2835 31419l54923 123429c3307-3308 6614-6615 9921-9568 29883-26103 61656-41221 86460-51143 24686-9803 42757-14056 45119-14646l945-118 27875-5670z m830932 734787l675966-547812-167722-553364c0 0-332727 12047-413989 14882-81381 3071-258906 95200-413045 219692-154138 124610-287017 142446-287017 142446l-236464 58112c0 0-150949 41340-134413 147170 16417 105593 128153 120122 189454 103822 61183-16536 230323-56577 230323-56577l308041-54923c0 0 49844 84097 54568 115634 2953 19725-11575 78782-11575 78782-145280 99806-290442 199612-435722 299537l-374894-99216c0 0-126618-18544-190163 5433-45120 17009-55868 32954-66617 60238-4370 11103-3307 30474 1063 43112 4489 12638 21379 23387 21379 23387l537300 180832c21261 7087 43112 7323 63310 2244l0 236 1653-472 1654-472c159454-32482 455447-91303 600019-154139l236 0 0 0c16772-7323 32481-16890 46655-28584z" data-fill-palette-color="accent"/></g></svg></g></svg></g></svg></g></svg></g></svg></g></svg></g></svg></g><g><path xmlns="http://www.w3.org/2000/svg" d="M0 154.5v-154.5h154.5v154.5zM150.775 150.775v-147.05h-147.05v147.05z" fill="#4f46e5" fill-rule="nonzero" stroke="none" stroke-width="1" stroke-linecap="butt" stroke-linejoin="miter" stroke-miterlimit="10" stroke-dasharray="" stroke-dashoffset="0" font-family="none" font-weight="none" font-size="none" text-anchor="none" style="mix-blend-mode: normal" data-fill-palette-color="tertiary"/></g></svg></g><defs/></svg>