<svg xmlns="http://www.w3.org/2000/svg" version="1.1" xmlns:xlink="http://www.w3.org/1999/xlink" xmlns:svgjs="http://svgjs.dev/svgjs" width="1500" height="348" viewBox="0 0 1500 348"><g transform="matrix(1,0,0,1,0.15999999999996817,0.38503000000002885)"><svg viewBox="0 0 375 87" data-background-color="#ffffff" preserveAspectRatio="xMidYMid meet" height="348" width="1500" xmlns="http://www.w3.org/2000/svg" xmlns:xlink="http://www.w3.org/1999/xlink"><g id="tight-bounds" transform="matrix(1,0,0,1,-0.03976000000000113,-0.09593750000001933)"><svg viewBox="0 0 375.07953 87.19219500000001" height="87.19219500000001" width="375.07953"><g><svg></svg></g><g><svg viewBox="0 0 375.07953 87.19219500000001" height="87.19219500000001" width="375.07953"><g transform="matrix(1,0,0,1,-10.22024,-82.61631999999999)"><path d="M10.22 164.584v-81.968h375.08v81.968l-21.29 0 0-2.681h18.61v-76.606h-369.72v76.606l27.862 0 0 2.681z" fill="#4f46e5" fill-rule="nonzero" stroke="none" stroke-width="1" stroke-linecap="butt" stroke-linejoin="miter" stroke-miterlimit="10" stroke-dasharray="" stroke-dashoffset="0" font-family="none" font-weight="none" font-size="none" text-anchor="none" style="mix-blend-mode: normal" data-fill-palette-color="tertiary"></path><g><path transform="translate(47.95247,166.97068) scale(0.2835,0.2835)" d="M37.99-25v25h-6.98v-25c0-0.487-0.093-0.943-0.28-1.37-0.193-0.42-0.447-0.79-0.76-1.11-0.32-0.313-0.69-0.56-1.11-0.74-0.427-0.18-0.883-0.27-1.37-0.27v0c-0.487 0-0.943 0.09-1.37 0.27-0.42 0.18-0.79 0.427-1.11 0.74-0.313 0.32-0.56 0.69-0.74 1.11-0.18 0.427-0.27 0.883-0.27 1.37v0 25h-7.01v-25c0-0.487-0.09-0.943-0.27-1.37-0.173-0.42-0.42-0.79-0.74-1.11-0.32-0.313-0.69-0.56-1.11-0.74-0.427-0.18-0.883-0.27-1.37-0.27v0c-0.487 0-0.943 0.09-1.37 0.27-0.42 0.18-0.79 0.427-1.11 0.74-0.313 0.32-0.56 0.69-0.74 1.11-0.18 0.427-0.27 0.883-0.27 1.37v0 25h-7.01v-25c0-1.447 0.273-2.81 0.82-4.09 0.547-1.28 1.297-2.393 2.25-3.34 0.953-0.953 2.067-1.703 3.34-2.25 1.28-0.547 2.643-0.82 4.09-0.82v0c1.3 0 2.553 0.233 3.76 0.7 1.207 0.46 2.29 1.13 3.25 2.01v0c0.96-0.88 2.037-1.55 3.23-2.01 1.2-0.467 2.45-0.7 3.75-0.7v0c1.447 0 2.81 0.273 4.09 0.82 1.28 0.547 2.393 1.297 3.34 2.25 0.953 0.947 1.703 2.06 2.25 3.34 0.547 1.28 0.82 2.643 0.82 4.09zM103.05-26.1v26.1h-1.61l-2.59-3.59c-0.633 0.573-1.303 1.107-2.01 1.6-0.713 0.493-1.46 0.923-2.24 1.29-0.78 0.367-1.58 0.657-2.4 0.87-0.82 0.213-1.653 0.32-2.5 0.32v0c-1.84 0-3.57-0.31-5.19-0.93-1.62-0.62-3.037-1.52-4.25-2.7-1.213-1.18-2.17-2.623-2.87-4.33-0.7-1.707-1.05-3.653-1.05-5.84v0c0-2.033 0.35-3.9 1.05-5.6 0.7-1.7 1.657-3.16 2.87-4.38 1.213-1.22 2.63-2.17 4.25-2.85 1.62-0.673 3.35-1.01 5.19-1.01v0c0.847 0 1.683 0.107 2.51 0.32 0.833 0.213 1.64 0.507 2.42 0.88 0.78 0.373 1.523 0.813 2.23 1.32 0.707 0.5 1.37 1.043 1.99 1.63v0l2.59-3.1zM96.34-13.31v0c0-0.907-0.177-1.787-0.53-2.64-0.347-0.86-0.823-1.62-1.43-2.28-0.6-0.653-1.303-1.18-2.11-1.58-0.807-0.4-1.663-0.6-2.57-0.6v0c-0.913 0-1.773 0.153-2.58 0.46-0.807 0.313-1.507 0.77-2.1 1.37-0.593 0.6-1.06 1.343-1.4 2.23-0.347 0.893-0.52 1.907-0.52 3.04v0c0 1.14 0.173 2.153 0.52 3.04 0.34 0.887 0.807 1.633 1.4 2.24 0.593 0.6 1.293 1.053 2.1 1.36 0.807 0.313 1.667 0.47 2.58 0.47v0c0.907 0 1.763-0.2 2.57-0.6 0.807-0.4 1.51-0.93 2.11-1.59 0.607-0.66 1.083-1.417 1.43-2.27 0.353-0.853 0.53-1.737 0.53-2.65zM149.34-3.34v3.34h-6.72v-36.55h6.72v23.05l9.93-12.6h7.67l-8.67 10.89 8.67 15.21h-7.67l-5.29-9.5zM211.93-33.25v0c0 0.62-0.117 1.197-0.35 1.73-0.233 0.54-0.553 1.01-0.96 1.41-0.413 0.393-0.89 0.71-1.43 0.95-0.547 0.233-1.13 0.35-1.75 0.35v0c-0.62 0-1.2-0.117-1.74-0.35-0.547-0.24-1.02-0.557-1.42-0.95-0.4-0.4-0.717-0.87-0.95-1.41-0.24-0.533-0.36-1.11-0.36-1.73v0c0-0.607 0.12-1.18 0.36-1.72 0.233-0.547 0.55-1.02 0.95-1.42 0.4-0.4 0.873-0.717 1.42-0.95 0.54-0.24 1.12-0.36 1.74-0.36v0c0.62 0 1.203 0.12 1.75 0.36 0.54 0.233 1.017 0.55 1.43 0.95 0.407 0.4 0.727 0.873 0.96 1.42 0.233 0.54 0.35 1.113 0.35 1.72zM210.79-26.15v26.15h-6.72v-26.15zM257.02-14.94v14.94h-6.66v-26.15h1.61l2.2 2.54c1.073-0.973 2.29-1.727 3.65-2.26 1.36-0.527 2.78-0.79 4.26-0.79v0c1.593 0 3.097 0.307 4.51 0.92 1.42 0.607 2.66 1.443 3.72 2.51 1.053 1.067 1.887 2.313 2.5 3.74 0.607 1.42 0.91 2.937 0.91 4.55v0 14.94h-6.66v-14.94c0-0.687-0.13-1.333-0.39-1.94-0.26-0.613-0.62-1.147-1.08-1.6-0.453-0.46-0.98-0.82-1.58-1.08-0.607-0.26-1.25-0.39-1.93-0.39v0c-0.7 0-1.36 0.13-1.98 0.39-0.62 0.26-1.157 0.62-1.61 1.08-0.453 0.453-0.81 0.987-1.07 1.6-0.267 0.607-0.4 1.253-0.4 1.94zM331.56-13.31v0c0-0.907-0.177-1.787-0.53-2.64-0.347-0.86-0.82-1.62-1.42-2.28-0.607-0.653-1.313-1.18-2.12-1.58-0.8-0.4-1.657-0.6-2.57-0.6v0c-0.913 0-1.773 0.153-2.58 0.46-0.807 0.313-1.507 0.77-2.1 1.37-0.593 0.6-1.06 1.343-1.4 2.23-0.34 0.893-0.51 1.907-0.51 3.04v0c0 1.093 0.17 2.077 0.51 2.95 0.34 0.867 0.807 1.61 1.4 2.23 0.593 0.62 1.293 1.097 2.1 1.43 0.807 0.333 1.667 0.5 2.58 0.5v0c0.913 0 1.77-0.2 2.57-0.6 0.807-0.4 1.513-0.93 2.12-1.59 0.6-0.66 1.073-1.417 1.42-2.27 0.353-0.853 0.53-1.737 0.53-2.65zM338.27-26.1v22.8c0 1.84-0.35 3.567-1.05 5.18-0.7 1.613-1.657 3.02-2.87 4.22-1.207 1.207-2.62 2.16-4.24 2.86-1.62 0.7-3.35 1.05-5.19 1.05v0l-3.35-0.05v-6.66l3.3 0.04c1.04 0 1.927-0.133 2.66-0.4 0.733-0.267 1.353-0.633 1.86-1.1 0.5-0.46 0.9-0.993 1.2-1.6 0.307-0.6 0.547-1.233 0.72-1.9v0c-0.26 0.42-0.633 0.767-1.12 1.04-0.487 0.267-1.027 0.487-1.62 0.66-0.593 0.167-1.213 0.283-1.86 0.35-0.64 0.067-1.237 0.1-1.79 0.1v0c-1.84 0-3.57-0.317-5.19-0.95-1.62-0.64-3.037-1.55-4.25-2.73-1.213-1.18-2.17-2.623-2.87-4.33-0.7-1.707-1.05-3.637-1.05-5.79v0c0-1.967 0.35-3.797 1.05-5.49 0.7-1.693 1.657-3.157 2.87-4.39 1.213-1.24 2.63-2.21 4.25-2.91 1.62-0.7 3.35-1.05 5.19-1.05v0c0.847 0 1.683 0.107 2.51 0.32 0.833 0.213 1.64 0.507 2.42 0.88 0.78 0.373 1.523 0.813 2.23 1.32 0.713 0.5 1.377 1.043 1.99 1.63v0l2.59-3.1zM433.63-13.99h14.01v-7.01c0-0.96-0.18-1.867-0.54-2.72-0.367-0.853-0.87-1.597-1.51-2.23-0.633-0.633-1.377-1.133-2.23-1.5-0.853-0.367-1.76-0.55-2.72-0.55v0c-0.96 0-1.867 0.183-2.72 0.55-0.86 0.367-1.607 0.867-2.24 1.5-0.633 0.633-1.133 1.377-1.5 2.23-0.367 0.853-0.55 1.76-0.55 2.72v0zM454.65-21v21h-7.01v-7.01h-14.01v7.01h-6.98v-21c0-1.933 0.367-3.75 1.1-5.45 0.733-1.7 1.73-3.187 2.99-4.46 1.26-1.267 2.74-2.267 4.44-3 1.7-0.733 3.52-1.1 5.46-1.1v0c1.933 0 3.75 0.367 5.45 1.1 1.707 0.733 3.193 1.733 4.46 3 1.267 1.273 2.267 2.76 3 4.46 0.733 1.7 1.1 3.517 1.1 5.45zM571.76-17.5v0c0 1.607-0.207 3.157-0.62 4.65-0.413 1.487-1.003 2.877-1.77 4.17-0.767 1.293-1.677 2.473-2.73 3.54-1.06 1.067-2.24 1.983-3.54 2.75-1.307 0.76-2.703 1.35-4.19 1.77-1.493 0.413-3.043 0.62-4.65 0.62v0h-10.55v-35.01h10.55c1.607 0 3.157 0.207 4.65 0.62 1.487 0.42 2.883 1.01 4.19 1.77 1.3 0.767 2.48 1.683 3.54 2.75 1.053 1.067 1.963 2.247 2.73 3.54 0.767 1.293 1.357 2.683 1.77 4.17 0.413 1.493 0.62 3.047 0.62 4.66zM564.76-17.5v0c0-1.453-0.273-2.813-0.82-4.08-0.547-1.273-1.297-2.383-2.25-3.33-0.953-0.953-2.067-1.707-3.34-2.26-1.28-0.553-2.643-0.83-4.09-0.83v0h-3.49v20.99h3.49c1.447 0 2.81-0.27 4.09-0.81 1.273-0.547 2.387-1.297 3.34-2.25 0.953-0.953 1.703-2.07 2.25-3.35 0.547-1.273 0.82-2.633 0.82-4.08zM618.05-33.25v0c0 0.62-0.117 1.197-0.35 1.73-0.24 0.54-0.563 1.01-0.97 1.41-0.407 0.393-0.883 0.71-1.43 0.95-0.54 0.233-1.12 0.35-1.74 0.35v0c-0.62 0-1.203-0.117-1.75-0.35-0.547-0.24-1.017-0.557-1.41-0.95-0.4-0.4-0.72-0.87-0.96-1.41-0.233-0.533-0.35-1.11-0.35-1.73v0c0-0.607 0.117-1.18 0.35-1.72 0.24-0.547 0.56-1.02 0.96-1.42 0.393-0.4 0.863-0.717 1.41-0.95 0.547-0.24 1.13-0.36 1.75-0.36v0c0.62 0 1.2 0.12 1.74 0.36 0.547 0.233 1.023 0.55 1.43 0.95 0.407 0.4 0.73 0.873 0.97 1.42 0.233 0.54 0.35 1.113 0.35 1.72zM616.9-26.15v26.15h-6.71v-26.15zM664.95-19.51v19.51h-6.67v-19.51h-3.24v-6.64h3.24v-1.24c0-1.613 0.307-3.127 0.92-4.54 0.607-1.42 1.443-2.653 2.51-3.7 1.067-1.053 2.31-1.883 3.73-2.49 1.413-0.613 2.927-0.92 4.54-0.92v0h5v6.64h-5c-0.72 0-1.383 0.127-1.99 0.38-0.613 0.253-1.143 0.603-1.59 1.05-0.447 0.447-0.8 0.977-1.06 1.59-0.26 0.607-0.39 1.27-0.39 1.99v0 1.24h8.18v6.64zM719.24-19.51v19.51h-6.66v-19.51h-3.25v-6.64h3.25v-1.24c0-1.613 0.303-3.127 0.91-4.54 0.613-1.42 1.453-2.653 2.52-3.7 1.067-1.053 2.307-1.883 3.72-2.49 1.42-0.613 2.933-0.92 4.54-0.92v0h5.01v6.64h-5.01c-0.713 0-1.377 0.127-1.99 0.38-0.607 0.253-1.133 0.603-1.58 1.05-0.453 0.447-0.81 0.977-1.07 1.59-0.26 0.607-0.39 1.27-0.39 1.99v0 1.24h8.18v6.64zM787.48-21.46l-12.5 15.06c0.26 0.087 0.52 0.14 0.78 0.16 0.26 0.027 0.52 0.04 0.78 0.04v0c0.653 0 1.28-0.09 1.88-0.27 0.6-0.18 1.167-0.437 1.7-0.77 0.527-0.333 0.997-0.74 1.41-1.22 0.42-0.48 0.76-1.013 1.02-1.6v0l4.88 4.91c-0.62 0.88-1.333 1.67-2.14 2.37-0.8 0.7-1.67 1.293-2.61 1.78-0.933 0.487-1.917 0.857-2.95 1.11-1.033 0.253-2.097 0.38-3.19 0.38v0c-1.84 0-3.57-0.343-5.19-1.03-1.62-0.68-3.033-1.63-4.24-2.85-1.213-1.22-2.17-2.673-2.87-4.36-0.7-1.687-1.05-3.54-1.05-5.56v0c0-2.067 0.35-3.953 1.05-5.66 0.7-1.707 1.657-3.163 2.87-4.37 1.207-1.207 2.62-2.143 4.24-2.81 1.62-0.667 3.35-1 5.19-1v0c1.093 0 2.16 0.13 3.2 0.39 1.04 0.26 2.03 0.637 2.97 1.13 0.933 0.487 1.807 1.083 2.62 1.79 0.813 0.707 1.53 1.5 2.15 2.38zM770.63-9.84l7.77-10.3c-0.313-0.113-0.62-0.187-0.92-0.22-0.3-0.033-0.613-0.05-0.94-0.05v0c-0.913 0-1.77 0.167-2.57 0.5-0.807 0.333-1.507 0.81-2.1 1.43-0.6 0.62-1.07 1.363-1.41 2.23-0.34 0.873-0.51 1.853-0.51 2.94v0c0 0.247 0.013 0.523 0.04 0.83 0.02 0.313 0.06 0.627 0.12 0.94 0.053 0.32 0.123 0.627 0.21 0.92 0.08 0.293 0.183 0.553 0.31 0.78zM831.98-14.4v14.4h-6.66v-26.15h1.61l2.2 3.1c1.073-0.973 2.293-1.727 3.66-2.26 1.367-0.527 2.783-0.79 4.25-0.79v0h5.88v6.64h-5.88c-0.7 0-1.36 0.13-1.98 0.39-0.62 0.26-1.157 0.62-1.61 1.08-0.46 0.453-0.82 0.99-1.08 1.61-0.26 0.62-0.39 1.28-0.39 1.98zM902.93-21.46l-12.5 15.06c0.26 0.087 0.52 0.14 0.78 0.16 0.26 0.027 0.52 0.04 0.78 0.04v0c0.653 0 1.28-0.09 1.88-0.27 0.607-0.18 1.173-0.437 1.7-0.77 0.527-0.333 0.997-0.74 1.41-1.22 0.42-0.48 0.76-1.013 1.02-1.6v0l4.88 4.91c-0.62 0.88-1.333 1.67-2.14 2.37-0.8 0.7-1.67 1.293-2.61 1.78-0.933 0.487-1.917 0.857-2.95 1.11-1.033 0.253-2.097 0.38-3.19 0.38v0c-1.84 0-3.57-0.343-5.19-1.03-1.62-0.68-3.033-1.63-4.24-2.85-1.213-1.22-2.17-2.673-2.87-4.36-0.7-1.687-1.05-3.54-1.05-5.56v0c0-2.067 0.35-3.953 1.05-5.66 0.7-1.707 1.657-3.163 2.87-4.37 1.207-1.207 2.62-2.143 4.24-2.81 1.62-0.667 3.35-1 5.19-1v0c1.093 0 2.16 0.13 3.2 0.39 1.04 0.26 2.03 0.637 2.97 1.13 0.933 0.487 1.807 1.083 2.62 1.79 0.813 0.707 1.53 1.5 2.15 2.38zM886.08-9.84l7.77-10.3c-0.313-0.113-0.62-0.187-0.92-0.22-0.3-0.033-0.613-0.05-0.94-0.05v0c-0.913 0-1.77 0.167-2.57 0.5-0.807 0.333-1.507 0.81-2.1 1.43-0.593 0.62-1.063 1.363-1.41 2.23-0.34 0.873-0.51 1.853-0.51 2.94v0c0 0.247 0.013 0.523 0.04 0.83 0.02 0.313 0.06 0.627 0.12 0.94 0.053 0.32 0.123 0.627 0.21 0.92 0.08 0.293 0.183 0.553 0.31 0.78zM947.43-14.94v14.94h-6.66v-26.15h1.61l2.2 2.54c1.073-0.973 2.29-1.727 3.65-2.26 1.36-0.527 2.78-0.79 4.26-0.79v0c1.593 0 3.097 0.307 4.51 0.92 1.42 0.607 2.66 1.443 3.72 2.51 1.053 1.067 1.887 2.313 2.5 3.74 0.607 1.42 0.91 2.937 0.91 4.55v0 14.94h-6.66v-14.94c0-0.687-0.13-1.333-0.39-1.94-0.26-0.613-0.62-1.147-1.08-1.6-0.453-0.46-0.98-0.82-1.58-1.08-0.607-0.26-1.25-0.39-1.93-0.39v0c-0.7 0-1.36 0.13-1.98 0.39-0.62 0.26-1.157 0.62-1.61 1.08-0.453 0.453-0.81 0.987-1.07 1.6-0.267 0.607-0.4 1.253-0.4 1.94zM1026.22-20.95v0l-4.89 4.91c-0.24-0.687-0.573-1.3-1-1.84-0.42-0.547-0.893-1.007-1.42-1.38-0.533-0.373-1.11-0.66-1.73-0.86-0.613-0.193-1.247-0.29-1.9-0.29v0c-0.913 0-1.773 0.187-2.58 0.56-0.8 0.373-1.5 0.9-2.1 1.58-0.593 0.673-1.06 1.473-1.4 2.4-0.34 0.927-0.51 1.953-0.51 3.08v0c0 0.907 0.17 1.76 0.51 2.56 0.34 0.8 0.807 1.5 1.4 2.1 0.6 0.6 1.3 1.073 2.1 1.42 0.807 0.34 1.667 0.51 2.58 0.51v0c0.653 0 1.28-0.09 1.88-0.27 0.6-0.18 1.167-0.437 1.7-0.77 0.527-0.333 0.997-0.74 1.41-1.22 0.413-0.48 0.753-1.013 1.02-1.6v0l4.88 4.91c-0.62 0.88-1.333 1.67-2.14 2.37-0.807 0.7-1.677 1.293-2.61 1.78-0.933 0.487-1.917 0.857-2.95 1.11-1.033 0.253-2.097 0.38-3.19 0.38v0c-1.84 0-3.57-0.347-5.19-1.04-1.62-0.693-3.037-1.64-4.25-2.84-1.213-1.207-2.17-2.617-2.87-4.23-0.693-1.607-1.04-3.33-1.04-5.17v0c0-2.007 0.347-3.88 1.04-5.62 0.7-1.74 1.657-3.257 2.87-4.55 1.213-1.293 2.63-2.317 4.25-3.07 1.62-0.747 3.35-1.12 5.19-1.12v0c1.093 0 2.163 0.14 3.21 0.42 1.047 0.273 2.047 0.677 3 1.21 0.953 0.527 1.833 1.173 2.64 1.94 0.807 0.76 1.503 1.637 2.09 2.63zM1086.47-21.46l-12.5 15.06c0.26 0.087 0.52 0.14 0.78 0.16 0.26 0.027 0.52 0.04 0.78 0.04v0c0.653 0 1.28-0.09 1.88-0.27 0.607-0.18 1.173-0.437 1.7-0.77 0.527-0.333 0.997-0.74 1.41-1.22 0.42-0.48 0.76-1.013 1.02-1.6v0l4.88 4.91c-0.62 0.88-1.333 1.67-2.14 2.37-0.8 0.7-1.67 1.293-2.61 1.78-0.933 0.487-1.917 0.857-2.95 1.11-1.033 0.253-2.097 0.38-3.19 0.38v0c-1.84 0-3.57-0.343-5.19-1.03-1.62-0.68-3.033-1.63-4.24-2.85-1.213-1.22-2.17-2.673-2.87-4.36-0.7-1.687-1.05-3.54-1.05-5.56v0c0-2.067 0.35-3.953 1.05-5.66 0.7-1.707 1.657-3.163 2.87-4.37 1.207-1.207 2.62-2.143 4.24-2.81 1.62-0.667 3.35-1 5.19-1v0c1.093 0 2.16 0.13 3.2 0.39 1.04 0.26 2.03 0.637 2.97 1.13 0.933 0.487 1.807 1.083 2.62 1.79 0.813 0.707 1.53 1.5 2.15 2.38zM1069.62-9.84l7.77-10.3c-0.313-0.113-0.62-0.187-0.92-0.22-0.3-0.033-0.613-0.05-0.94-0.05v0c-0.913 0-1.77 0.167-2.57 0.5-0.807 0.333-1.507 0.81-2.1 1.43-0.593 0.62-1.063 1.363-1.41 2.23-0.34 0.873-0.51 1.853-0.51 2.94v0c0 0.247 0.013 0.523 0.04 0.83 0.02 0.313 0.06 0.627 0.12 0.94 0.053 0.32 0.123 0.627 0.21 0.92 0.08 0.293 0.183 0.553 0.31 0.78z" fill="#4f46e5" fill-rule="nonzero" stroke="none" stroke-width="1" stroke-linecap="butt" stroke-linejoin="miter" stroke-miterlimit="10" stroke-dasharray="" stroke-dashoffset="0" font-family="none" font-weight="none" font-size="none" text-anchor="none" style="mix-blend-mode: normal" data-fill-palette-color="secondary"></path></g></g><g transform="matrix(1,0,0,1,29.33176499999999,28.193251900359087)"><svg viewBox="0 0 316.416 30.805691199281835" height="30.805691199281835" width="316.416"><g><svg viewBox="0 0 316.416 30.805691199281835" height="30.805691199281835" width="316.416"><g><svg viewBox="0 0 359.3154308332756 34.98230242903899" height="30.805691199281835" width="316.416"><g transform="matrix(1,0,0,1,42.899430833275645,0.6159450258851571)"><svg viewBox="0 0 316.416 33.750412377268674" height="33.750412377268674" width="316.416"><g id="textblocktransform"><svg viewBox="0 0 316.416 33.750412377268674" height="33.750412377268674" width="316.416" id="textblock"><g><svg viewBox="0 0 316.416 33.750412377268674" height="33.750412377268674" width="316.416"><g transform="matrix(1,0,0,1,0,0)"><svg width="316.416" viewBox="1.4 -35.35 336.06 35.85" height="33.750412377268674" data-palette-color="#4f46e5"><path d="M11.2 0.5L11.2 0.5Q8.45 0.5 6.23-0.88 4-2.25 2.7-4.55 1.4-6.85 1.4-9.7L1.4-9.7 1.45-25.3Q1.45-28.05 2.73-30.33 4-32.6 6.23-33.98 8.45-35.35 11.2-35.35L11.2-35.35Q13.95-35.35 16.15-34 18.35-32.65 19.65-30.38 20.95-28.1 20.95-25.3L20.95-25.3 20.95-23Q20.95-22.8 20.75-22.8L20.75-22.8 15.15-22.8Q14.95-22.8 14.95-23L14.95-23 14.95-25.3Q14.95-26.95 13.88-28.15 12.8-29.35 11.2-29.35L11.2-29.35Q9.4-29.35 8.45-28.13 7.5-26.9 7.5-25.3L7.5-25.3 7.5-9.7Q7.5-7.85 8.58-6.7 9.65-5.55 11.2-5.55L11.2-5.55Q12.8-5.55 13.88-6.83 14.95-8.1 14.95-9.7L14.95-9.7 14.95-12Q14.95-12.2 15.15-12.2L15.15-12.2 20.8-12.2Q21-12.2 21-12L21-12 21-9.7Q21-6.85 19.68-4.55 18.35-2.25 16.15-0.88 13.95 0.5 11.2 0.5ZM30.5 0L24.85 0Q24.65 0 24.65-0.25L24.65-0.25 24.7-34.6Q24.7-34.8 24.95-34.8L24.95-34.8 30.5-34.8Q30.75-34.8 30.75-34.6L30.75-34.6 30.7-21 38.2-21 38.2-34.6Q38.2-34.8 38.4-34.8L38.4-34.8 43.95-34.8Q44.2-34.8 44.2-34.6L44.2-34.6 44.3-0.25Q44.3 0 44.05 0L44.05 0 38.45 0Q38.2 0 38.2-0.25L38.2-0.25 38.2-14.95 30.7-14.95 30.7-0.25Q30.7 0 30.5 0L30.5 0ZM46.7-0.25L46.7-0.25 52.9-34.6Q52.95-34.8 53.15-34.8L53.15-34.8 60.4-34.8Q60.6-34.8 60.65-34.6L60.65-34.6 66.59-0.25Q66.65 0 66.4 0L66.4 0 60.85 0Q60.65 0 60.6-0.25L60.6-0.25 60.05-3.9 53.25-3.9 52.7-0.25Q52.65 0 52.45 0L52.45 0 46.9 0Q46.7 0 46.7-0.25ZM56.5-23.3L54.25-9.25 59.05-9.25 57-23.3 56.7-25.15 56.5-23.3ZM75.59 0L69.94 0Q69.74 0 69.74-0.25L69.74-0.25 69.84-34.6Q69.84-34.8 70.04-34.8L70.04-34.8 80.14-34.8Q82.84-34.8 85.12-33.48 87.39-32.15 88.74-29.93 90.09-27.7 90.09-24.9L90.09-24.9Q90.09-23.05 89.54-21.58 88.99-20.1 88.24-19.07 87.49-18.05 86.89-17.55L86.89-17.55Q89.59-14.55 89.59-10.5L89.59-10.5 89.64-0.25Q89.64 0 89.39 0L89.39 0 83.74 0Q83.54 0 83.54-0.15L83.54-0.15 83.54-10.5Q83.54-12.3 82.27-13.63 80.99-14.95 79.14-14.95L79.14-14.95 75.84-14.95 75.79-0.25Q75.79 0 75.59 0L75.59 0ZM75.84-28.8L75.84-20.95 80.14-20.95Q81.69-20.95 82.89-22.1 84.09-23.25 84.09-24.9L84.09-24.9Q84.09-26.5 82.92-27.65 81.74-28.8 80.14-28.8L80.14-28.8 75.84-28.8ZM99.74 0L94.09 0Q93.84 0 93.84-0.25L93.84-0.25 93.89-34.6Q93.89-34.8 94.09-34.8L94.09-34.8 99.69-34.8Q99.89-34.8 99.89-34.6L99.89-34.6 99.94-0.25Q99.94 0 99.74 0L99.74 0ZM114.99 0L109.34 0Q109.14 0 109.14-0.25L109.14-0.25 109.14-28.75 102.64-28.75Q102.39-28.75 102.39-29L102.39-29 102.44-34.6Q102.44-34.8 102.64-34.8L102.64-34.8 121.64-34.8Q121.89-34.8 121.89-34.6L121.89-34.6 121.89-29Q121.89-28.75 121.69-28.75L121.69-28.75 115.14-28.75 115.19-0.25Q115.19 0 114.99 0L114.99 0ZM134.74 0L128.99 0Q128.84 0 128.84-0.2L128.84-0.2 128.89-14.4 122.19-34.6Q122.14-34.8 122.34-34.8L122.34-34.8 127.89-34.8Q128.14-34.8 128.19-34.6L128.19-34.6 131.89-21.15 135.64-34.6Q135.69-34.8 135.89-34.8L135.89-34.8 141.49-34.8Q141.69-34.8 141.64-34.6L141.64-34.6 134.89-14.6 134.94-0.2Q134.94 0 134.74 0L134.74 0ZM162.43 0L156.38 0Q156.18 0 156.13-0.25L156.13-0.25 150.23-34.6Q150.18-34.8 150.38-34.8L150.38-34.8 155.98-34.8Q156.18-34.8 156.23-34.6L156.23-34.6 159.43-12 162.73-34.6Q162.78-34.8 163.03-34.8L163.03-34.8 167.53-34.8Q167.73-34.8 167.78-34.6L167.78-34.6 171.03-12 174.28-34.6Q174.33-34.8 174.53-34.8L174.53-34.8 180.08-34.8Q180.33-34.8 180.28-34.6L180.28-34.6 174.33-0.25Q174.28-0.15 174.18-0.08 174.08 0 174.08 0L174.08 0 168.03 0Q167.88 0 167.78-0.25L167.78-0.25 165.23-18.2 162.68-0.25Q162.63 0 162.43 0L162.43 0ZM199.58 0L183.43 0Q183.23 0 183.23-0.25L183.23-0.25 183.28-34.6Q183.28-34.8 183.48-34.8L183.48-34.8 199.53-34.8Q199.73-34.8 199.73-34.55L199.73-34.55 199.73-28.95Q199.73-28.75 199.53-28.75L199.53-28.75 189.28-28.75 189.28-20.95 199.53-20.95Q199.73-20.95 199.73-20.75L199.73-20.75 199.78-15.1Q199.78-14.9 199.58-14.9L199.58-14.9 189.28-14.9 189.28-6.15 199.58-6.15Q199.78-6.15 199.78-5.9L199.78-5.9 199.78-0.2Q199.78 0 199.58 0L199.58 0ZM212.43 0.5L212.43 0.5Q209.73 0.5 207.5-0.88 205.28-2.25 203.95-4.53 202.63-6.8 202.63-9.55L202.63-9.55 202.63-11.85Q202.63-12.1 202.88-12.1L202.88-12.1 208.48-12.1Q208.68-12.1 208.68-11.85L208.68-11.85 208.68-9.55Q208.68-7.9 209.78-6.73 210.88-5.55 212.43-5.55L212.43-5.55Q213.98-5.55 215.08-6.75 216.18-7.95 216.18-9.55L216.18-9.55Q216.18-11.4 213.78-12.75L213.78-12.75Q212.98-13.2 211.28-14.15 209.58-15.1 208.08-15.95L208.08-15.95Q205.33-17.55 204-19.98 202.68-22.4 202.68-25.45L202.68-25.45Q202.68-28.25 204.03-30.48 205.38-32.7 207.6-34 209.83-35.3 212.43-35.3L212.43-35.3Q215.08-35.3 217.3-33.98 219.53-32.65 220.85-30.43 222.18-28.2 222.18-25.45L222.18-25.45 222.18-21.35Q222.18-21.15 221.98-21.15L221.98-21.15 216.38-21.15Q216.18-21.15 216.18-21.35L216.18-21.35 216.13-25.45Q216.13-27.2 215.03-28.3 213.93-29.4 212.43-29.4L212.43-29.4Q210.88-29.4 209.78-28.23 208.68-27.05 208.68-25.45L208.68-25.45Q208.68-23.8 209.38-22.7 210.08-21.6 211.93-20.6L211.93-20.6Q212.18-20.45 212.9-20.08 213.63-19.7 214.48-19.23 215.33-18.75 216-18.4 216.68-18.05 216.83-17.95L216.83-17.95Q219.33-16.55 220.78-14.53 222.23-12.5 222.23-9.55L222.23-9.55Q222.23-6.7 220.9-4.42 219.58-2.15 217.35-0.83 215.13 0.5 212.43 0.5ZM236.12 0L230.47 0Q230.27 0 230.27-0.25L230.27-0.25 230.27-28.75 223.77-28.75Q223.52-28.75 223.52-29L223.52-29 223.57-34.6Q223.57-34.8 223.77-34.8L223.77-34.8 242.77-34.8Q243.02-34.8 243.02-34.6L243.02-34.6 243.02-29Q243.02-28.75 242.82-28.75L242.82-28.75 236.27-28.75 236.32-0.25Q236.32 0 236.12 0L236.12 0ZM258.72 0L253.12 0Q252.87 0 252.87-0.25L252.87-0.25 252.97-34.6Q252.97-34.8 253.17-34.8L253.17-34.8 262.77-34.8Q267.37-34.8 270.04-32 272.72-29.2 272.72-24.4L272.72-24.4Q272.72-20.85 271.32-18.25 269.92-15.65 267.67-14.25 265.42-12.85 262.77-12.85L262.77-12.85 258.97-12.85 258.97-0.25Q258.97 0 258.72 0L258.72 0ZM258.97-28.8L258.97-18.9 262.77-18.9Q264.37-18.9 265.54-20.43 266.72-21.95 266.72-24.4L266.72-24.4Q266.72-26.35 265.67-27.6 264.62-28.85 262.77-28.85L262.77-28.85 258.97-28.8ZM271.92-0.25L271.92-0.25 278.12-34.6Q278.17-34.8 278.37-34.8L278.37-34.8 285.62-34.8Q285.82-34.8 285.87-34.6L285.87-34.6 291.82-0.25Q291.87 0 291.62 0L291.62 0 286.07 0Q285.87 0 285.82-0.25L285.82-0.25 285.27-3.9 278.47-3.9 277.92-0.25Q277.87 0 277.67 0L277.67 0 272.12 0Q271.92 0 271.92-0.25ZM281.72-23.3L279.47-9.25 284.27-9.25 282.22-23.3 281.92-25.15 281.72-23.3ZM311.31 0L295.16 0Q294.96 0 294.96-0.25L294.96-0.25 295.01-34.55Q295.01-34.8 295.26-34.8L295.26-34.8 300.81-34.8Q301.06-34.8 301.06-34.55L301.06-34.55 301.01-6.15 311.31-6.15Q311.56-6.15 311.56-5.9L311.56-5.9 311.56-0.25Q311.56 0 311.31 0L311.31 0ZM320.66 0L315.01 0Q314.81 0 314.81-0.25L314.81-0.25 314.91-34.6Q314.91-34.8 315.11-34.8L315.11-34.8 321.21-34.8Q321.41-34.8 321.56-34.6L321.56-34.6 326.11-28 330.66-34.6Q330.81-34.8 331.01-34.8L331.01-34.8 337.16-34.8Q337.36-34.8 337.36-34.6L337.36-34.6 337.46-0.25Q337.46 0 337.26 0L337.26 0 331.61 0Q331.41 0 331.41-0.25L331.41-0.25 331.36-25.75 326.11-18.15 320.91-25.75 320.86-0.25Q320.86 0 320.66 0L320.66 0Z" opacity="1" transform="matrix(1,0,0,1,0,0)" fill="#4f46e5" class="wordmark-text-0" data-fill-palette-color="primary" id="text-0"></path></svg></g></svg></g></svg></g></svg></g><g><svg viewBox="0 0 34.931768480899564 34.98230242903899" height="34.98230242903899" width="34.931768480899564"><g><svg xmlns="http://www.w3.org/2000/svg" xmlns:xlink="http://www.w3.org/1999/xlink" xml:space="preserve" version="1.1" shape-rendering="geometricPrecision" text-rendering="geometricPrecision" image-rendering="optimizeQuality" fill-rule="evenodd" clip-rule="evenodd" viewBox="499858 497024 4000284 4006071" x="0" y="0" height="34.98230242903899" width="34.931768480899564" class="icon-icon-0" data-fill-palette-color="accent" id="icon-0"><g fill="#4f46e5" data-fill-palette-color="accent"><path fill="#4f46e5" d="M2838987 2928754c33190-12284 73585-30828 117878-58231-18308-18189-37679-34489-56222-43702-42994-21733-62010-18898-89295-8268-11220 4252-24804 18072-31064 30001-1181 2126-1889 4725-2480 7323 18662 19371 34844 38978 47836 55396 5079 6496 9449 12402 13347 17481z m-587381-1767103c-288670-12048-577459-5552-866247 64844-55514 184494-111146 368988-166777 553482 0 0 283709 174337 353042 216976 69333 42521 268237 64136 465487 45828 197251-18308 317845 40395 317845 40395l229023 82562c0 0 148705 49135 193471-47955 44883-97208-40159-171147-100161-191462-60120-20198-223117-80436-223117-80436-164887-75711-502575-46773-215086-310640 167958-42285 345129-40277 528678-8032 76893 93429 162053 189928 257253 290325 0 0 95081 85514 161343 100751 47010 10748 64727 3543 88822-13229 9803-6851 19607-23623 22914-36615 3307-12993-4725-31301-4725-31301l-347255-448124c-13819-17717-31772-30001-51497-36970l118-118-1536-472-1653-591c-131934-53623-494189-203746-639942-189218z m442219 1106019l2008 4488c57285 133823 213668 196306 347491 138902l0 0c133823-57285 196424-213668 139020-347491l-1889-4488c-57286-133824-213787-196424-347610-139021l0 0c-12992 5670-25394 12166-37088 19607 7323 8032 14174 16773 20316 25985 27875 42521 40867 95437 20788 155202-2480 7087-5197 13938-8150 20552-31418 68034-91774 89058-146697 92483 3189 11339 7086 22678 11811 33781z m-190872-1770646c1054167 0 1918170 814277 1997189 1848247l-547458 157682c-30592 8740-48427 41104-39569 71695l180360 626240c8859 30592 41104 48545 71696 39687l223707-64491c-277331 773529-1016961 1327011-1885925 1327011-1106255 0-2003095-896840-2003095-2003095 0-281229 58112-548757 162643-791600l416116 131697c30355 9568 63191-7441 72758-37796l196660-621280c9567-30473-7442-63191-37797-72758l-187919-59529c359302-341822 845460-551710 1380634-551710z m250756 2455471c3779-591 9685-1654 17126-3308-26457-33544-67325-79608-104176-98152-42994-21733-62010-18899-89412-8386-11103 4370-24686 18189-30946 30001-6378 11811-2835 31536-2835 31536l5551 12402c14528 15827 27639 31536 38151 44883 6142 7796 11339 14764 15709 20670l142446-28702 3189-236c118-118 1771-236 5197-708z m-217920 519819c12874 19135 31418 34607 54568 43466l174927 67207 247331-154966-252764-80199c-24096 4725-54923 10748-85515 16890-38859 7796-77246 15591-99334 20552-21260 4725-44056 6378-68033 5079-2835-236-5670-591-8504-827l21851 49254c3071 10394 7441 20433 13228 29646l1772 4134 473-236z m-5552-475527c-26575-33190-66262-77364-102050-95436-42994-21733-62010-18780-89413-8386-11102 4370-24685 18190-30945 30119-6379 11693-2835 31419-2835 31419l54923 123429c3307-3308 6614-6615 9921-9568 29883-26103 61656-41221 86460-51143 24686-9803 42757-14056 45119-14646l945-118 27875-5670z m830932 734787l675966-547812-167722-553364c0 0-332727 12047-413989 14882-81381 3071-258906 95200-413045 219692-154138 124610-287017 142446-287017 142446l-236464 58112c0 0-150949 41340-134413 147170 16417 105593 128153 120122 189454 103822 61183-16536 230323-56577 230323-56577l308041-54923c0 0 49844 84097 54568 115634 2953 19725-11575 78782-11575 78782-145280 99806-290442 199612-435722 299537l-374894-99216c0 0-126618-18544-190163 5433-45120 17009-55868 32954-66617 60238-4370 11103-3307 30474 1063 43112 4489 12638 21379 23387 21379 23387l537300 180832c21261 7087 43112 7323 63310 2244l0 236 1653-472 1654-472c159454-32482 455447-91303 600019-154139l236 0 0 0c16772-7323 32481-16890 46655-28584z" data-fill-palette-color="accent"></path></g></svg></g></svg></g></svg></g></svg></g></svg></g></svg></g><defs></defs></svg><rect width="375.07953" height="87.19219500000001" fill="none" stroke="none" visibility="hidden"></rect></g></svg></g></svg>